<svg width="37" height="28" viewBox="0 0 37 28" fill="none" xmlns="http://www.w3.org/2000/svg">
<g clip-path="url(#clip0)">
<path d="M6.20363 0.74917C7.25274 0.537891 8.06872 0.66903 8.65156 1.14259C8.92841 1.36844 9.11054 1.69629 9.19797 2.12613C9.29268 2.55597 9.24532 3.03682 9.0559 3.56866C8.97576 3.81637 8.83734 4.00215 8.64063 4.126C8.44392 4.24985 8.23993 4.32271 8.02865 4.34457C7.82465 4.35914 7.63887 4.33364 7.4713 4.26807C7.30374 4.19521 7.21267 4.09322 7.1981 3.96208L7.09974 3.74351C6.92489 3.48123 6.62254 3.44845 6.1927 3.64516C5.82114 3.81272 5.44958 4.10414 5.07802 4.51942C4.6846 4.96383 4.42961 5.36454 4.31304 5.72152C4.1819 6.11494 4.11633 6.37358 4.11633 6.49743C4.10176 6.77428 4.20012 7.02199 4.41139 7.24055C4.71739 7.43726 5.02338 7.52833 5.32937 7.51376C5.63536 7.4919 5.90857 7.42269 6.14899 7.30612C6.38941 7.18227 6.58612 7.04384 6.73911 6.89085C6.89211 6.73785 6.96861 6.62857 6.96861 6.563C6.99046 6.51929 7.01232 6.47557 7.03417 6.43186C7.05603 6.38815 7.07425 6.34444 7.08882 6.30072C7.05967 6.30072 7.06696 6.30072 7.11067 6.30072C7.15439 6.29344 7.16531 6.29344 7.14346 6.30072C7.1216 6.30072 7.13253 6.30436 7.17624 6.31165L7.24181 6.33351C6.88482 6.65407 6.53876 6.71964 6.20363 6.53022C6.07249 6.45007 5.95592 6.36629 5.85392 6.27887C5.75193 6.18415 5.65722 6.14044 5.56979 6.14773C5.40951 6.0603 5.37308 5.88909 5.46051 5.6341C5.49693 5.5321 5.5625 5.43739 5.65722 5.34996C5.75921 5.25525 5.88671 5.18968 6.0397 5.15326C6.76825 4.83998 7.44216 4.76712 8.06143 4.93469C8.33828 5.00755 8.5277 5.1569 8.6297 5.38275C8.73898 5.60131 8.78634 5.84902 8.77177 6.12587C8.7572 6.40272 8.69527 6.68321 8.58599 6.96735C8.48399 7.25148 8.37106 7.48097 8.24721 7.65583C8.12336 7.82339 7.94851 8.02374 7.72265 8.25688C7.50409 8.49001 7.22724 8.71587 6.89211 8.93443C6.06885 9.46627 5.1873 9.72126 4.24747 9.69941C2.88508 9.67755 2.08003 9.12021 1.83233 8.02739C1.75219 7.67768 1.71576 7.28426 1.72305 6.84713C1.7959 5.57946 2.17475 4.39556 2.85958 3.29545C3.18743 2.7709 3.6282 2.25363 4.1819 1.74364C4.53161 1.43037 4.92502 1.18994 5.36215 1.02238C5.59529 0.927665 5.87578 0.836597 6.20363 0.74917ZM13.8498 4.31178L13.8935 4.32271C13.9081 4.32271 13.9154 4.32635 13.9154 4.33364C14.1048 4.26078 14.2614 4.31542 14.3853 4.49756C14.4654 4.62141 14.5274 4.81084 14.5711 5.06583C14.5857 5.41553 14.5492 5.90002 14.4618 6.51929C14.2942 7.77239 14.2032 8.51916 14.1886 8.75958C14.2032 9.01457 14.0465 9.18942 13.7187 9.28413C13.4345 9.37156 13.1504 9.36792 12.8663 9.27321C12.5676 9.17121 12.4437 9.01457 12.4947 8.80329C12.4364 8.91257 12.3781 8.98907 12.3199 9.03278C12.2616 9.08378 12.145 9.14935 11.9702 9.22949C11.8026 9.31692 11.5622 9.38613 11.2489 9.43713C10.9356 9.49541 10.6223 9.50999 10.3091 9.48084C9.99579 9.45899 9.70801 9.38249 9.44573 9.25135C9.19074 9.1275 9.01953 8.93079 8.9321 8.66122C8.76454 8.13667 8.78639 7.47004 8.99767 6.66135C9.14338 6.12951 9.40566 5.6596 9.78451 5.25161C10.2216 4.78534 10.7171 4.39921 11.2708 4.09322C11.686 3.86736 12.0867 3.73258 12.4729 3.68887C12.604 3.6743 12.7169 3.67794 12.8116 3.6998C12.9136 3.72165 13.0193 3.74351 13.1286 3.76537C13.2451 3.78722 13.3544 3.82001 13.4564 3.86372C13.7187 3.973 13.8498 4.12236 13.8498 4.31178ZM11.8281 7.20777C11.8791 7.10577 11.9192 6.97827 11.9483 6.82528C11.9847 6.67228 12.0321 6.50472 12.0904 6.32258C11.5002 6.563 11.0485 6.85806 10.7353 7.20777C10.3928 7.5939 10.4147 7.85982 10.8008 8.00553C11.136 8.09296 11.38 8.03831 11.533 7.84161C11.5986 7.75418 11.6569 7.6449 11.7079 7.51376C11.7589 7.38262 11.8208 7.24784 11.8937 7.10941C11.8718 7.14584 11.8499 7.17862 11.8281 7.20777ZM15.8402 4.4757C15.9422 4.21343 16.0843 4.01672 16.2664 3.88558C16.4558 3.74715 16.6343 3.66337 16.8019 3.63423C16.9767 3.5978 17.1188 3.61602 17.2281 3.68887C17.3447 3.76173 17.3847 3.87465 17.3483 4.02765C17.4867 3.88922 17.6871 3.76173 17.9494 3.64516C18.2116 3.52859 18.4193 3.44845 18.5723 3.40474C18.7253 3.36102 18.8564 3.33917 18.9657 3.33917C19.2061 3.35374 19.2753 3.48488 19.1733 3.73258C19.2972 3.75444 19.3882 3.83458 19.4465 3.973C19.5048 4.11143 19.5121 4.26442 19.4684 4.43199C19.4247 4.59956 19.3263 4.76348 19.1733 4.92376C19.0203 5.08404 18.8127 5.19333 18.5504 5.25161C18.2954 5.30989 18.0805 5.44468 17.9056 5.65596C17.7381 5.85995 17.5887 6.11494 17.4576 6.42093C17.239 6.9382 17.0423 7.6704 16.8675 8.61751C16.8092 8.95993 16.5724 9.24771 16.1571 9.48084C15.7637 9.70669 15.4031 9.77226 15.0752 9.67755C14.7037 9.57555 14.5397 9.30235 14.5835 8.85793C14.598 8.54466 14.6927 8.12938 14.8676 7.61211C15.0424 7.08756 15.1772 6.69414 15.2719 6.43186C15.3667 6.1623 15.4322 5.9583 15.4686 5.81988L15.8402 4.4757ZM24.0524 4.31178L24.0961 4.32271C24.1106 4.32271 24.1179 4.32635 24.1179 4.33364C24.3074 4.26078 24.464 4.31542 24.5878 4.49756C24.668 4.62141 24.7299 4.81084 24.7736 5.06583C24.7882 5.41553 24.7518 5.90002 24.6643 6.51929C24.4968 7.77239 24.4057 8.51916 24.3911 8.75958C24.4057 9.01457 24.2491 9.18942 23.9212 9.28413C23.6371 9.37156 23.353 9.36792 23.0688 9.27321C22.7701 9.17121 22.6463 9.01457 22.6973 8.80329C22.639 8.91257 22.5807 8.98907 22.5224 9.03278C22.4641 9.08378 22.3476 9.14935 22.1727 9.22949C22.0051 9.31692 21.7647 9.38613 21.4514 9.43713C21.1382 9.49541 20.8249 9.50999 20.5116 9.48084C20.1983 9.45899 19.9106 9.38249 19.6483 9.25135C19.3933 9.1275 19.2221 8.93079 19.1347 8.66122C18.9671 8.13667 18.9889 7.47004 19.2002 6.66135C19.3459 6.12951 19.6082 5.6596 19.9871 5.25161C20.4242 4.78534 20.9196 4.39921 21.4733 4.09322C21.8886 3.86736 22.2893 3.73258 22.6754 3.68887C22.8065 3.6743 22.9195 3.67794 23.0142 3.6998C23.1162 3.72165 23.2218 3.74351 23.3311 3.76537C23.4477 3.78722 23.5569 3.82001 23.6589 3.86372C23.9212 3.973 24.0524 4.12236 24.0524 4.31178ZM22.0306 7.20777C22.0816 7.10577 22.1217 6.97827 22.1508 6.82528C22.1873 6.67228 22.2346 6.50472 22.2929 6.32258C21.7028 6.563 21.2511 6.85806 20.9378 7.20777C20.5954 7.5939 20.6172 7.85982 21.0034 8.00553C21.3385 8.09296 21.5826 8.03831 21.7356 7.84161C21.8011 7.75418 21.8594 7.6449 21.9104 7.51376C21.9614 7.38262 22.0234 7.24784 22.0962 7.10941C22.0743 7.14584 22.0525 7.17862 22.0306 7.20777ZM29.4961 4.63963C29.6199 4.41378 29.7839 4.30085 29.9879 4.30085C30.3011 4.4757 30.4978 4.75984 30.578 5.15326C30.6581 5.54667 30.5707 5.90002 30.3157 6.2133C30.3084 6.22058 30.3121 6.28251 30.3266 6.39908C30.4578 7.12763 30.4104 7.88532 30.1846 8.67215C30.1044 8.93443 30.0097 9.17849 29.9004 9.40435C29.7984 9.6302 29.6673 9.91433 29.507 10.2567C29.354 10.5992 29.1355 10.9379 28.8513 11.2731C28.5672 11.6082 28.2466 11.8741 27.8896 12.0708C27.1392 12.4934 26.3014 12.5845 25.3761 12.344C25.041 12.2129 24.8079 12.0599 24.6767 11.8851C24.5092 11.6738 24.4509 11.4479 24.5019 11.2075C24.5529 10.9088 24.7277 10.7449 25.0264 10.7157C25.1721 10.7012 25.3543 10.7558 25.5728 10.8797C25.8205 10.9307 26.0209 10.927 26.1739 10.8687C26.3269 10.8104 26.4471 10.7558 26.5345 10.7048C26.6292 10.6611 26.7458 10.6028 26.8842 10.53C27.1247 10.4061 27.3979 10.122 27.7038 9.67755C27.8714 9.44442 28.039 9.13114 28.2065 8.73772C27.937 9.08014 27.5071 9.24771 26.917 9.24042C26.7494 9.23314 26.56 9.22585 26.3487 9.21857C26.1448 9.21128 25.959 9.14207 25.7914 9.01093C25.6238 8.87979 25.4891 8.70858 25.3871 8.4973C25.2851 8.28602 25.2159 8.0456 25.1794 7.77604C25.1503 7.49919 25.1503 7.2187 25.1794 6.93456C25.296 5.94373 25.7113 5.16054 26.4252 4.58499C26.9134 4.18428 27.4379 3.96936 27.9989 3.94022C28.2685 3.92565 28.5235 3.95479 28.7639 4.02765C29.0553 4.13693 29.2994 4.34092 29.4961 4.63963ZM28.1628 7.12034C28.1628 7.09848 28.1665 7.08027 28.1738 7.0657C28.1373 7.05113 28.1009 7.0402 28.0645 7.03291C28.0281 7.01834 27.9625 6.99649 27.8678 6.96735C27.7731 6.9382 27.6456 6.95642 27.4853 7.02199C27.325 7.08027 27.1829 7.16405 27.0591 7.27334C26.9425 7.37533 26.8478 7.48462 26.7749 7.60118C26.7094 7.71775 26.6985 7.81611 26.7422 7.89625C26.7932 7.97639 26.8806 8.00917 27.0044 7.9946C27.1283 7.97274 27.2631 7.9181 27.4088 7.83068C27.7293 7.63397 27.9807 7.39719 28.1628 7.12034ZM34.6432 7.38262C34.5048 7.44819 34.37 7.49919 34.2389 7.53561C34.1077 7.57204 33.9547 7.60847 33.7799 7.6449C33.3209 7.73961 32.9894 7.79425 32.7854 7.80882C32.8073 7.88168 32.9165 7.9691 33.1132 8.0711C33.2444 8.09296 33.3865 8.07474 33.5395 8.01646C33.6997 7.95089 33.8637 7.8926 34.0312 7.84161C34.2061 7.78332 34.3736 7.75054 34.5339 7.74325C34.7015 7.73597 34.8581 7.79789 35.0038 7.92903C35.0621 8.06017 35.1095 8.13667 35.1459 8.15852C35.1823 8.18038 35.2151 8.19131 35.2443 8.19131C35.2734 8.19131 35.3062 8.20224 35.3426 8.22409C35.379 8.24595 35.43 8.32973 35.4956 8.47544C35.5685 8.62115 35.5502 8.75958 35.441 8.89072C35.339 9.02186 35.1787 9.13478 34.9601 9.22949C34.7416 9.3242 34.4866 9.4007 34.1951 9.45899C33.9037 9.51727 33.6123 9.55734 33.3209 9.5792C32.6652 9.6302 32.1661 9.5792 31.8237 9.4262C31.3283 9.25864 31.0077 8.92714 30.862 8.43173C30.6726 7.77604 30.7782 7.01106 31.1789 6.1368C31.3611 5.72881 31.6489 5.29168 32.0423 4.82541C32.3847 4.41742 32.7672 4.12236 33.1897 3.94022C33.6779 3.72894 34.1879 3.63059 34.7197 3.64516C35.288 3.65973 35.6814 3.90744 35.9 4.38828C36.0092 4.64327 36.0311 5.00026 35.9655 5.45925C35.849 6.05666 35.696 6.47922 35.5065 6.72692C35.3171 6.96735 35.0293 7.18591 34.6432 7.38262ZM34.0094 5.65596C33.6232 5.57581 33.3209 5.79438 33.1023 6.31165C33.0368 6.45007 32.9858 6.59578 32.9493 6.74878C33.197 6.77792 33.4593 6.6395 33.7362 6.33351C33.8382 6.20965 33.9147 6.0858 33.9657 5.96195C34.0167 5.83081 34.0312 5.72881 34.0094 5.65596Z" fill="#CCFFE3"/>
<path d="M4.87779 26.4765C4.26074 26.5007 3.69208 26.422 3.17182 26.2405C2.66365 26.0712 2.24623 25.8352 1.91956 25.5328C1.60498 25.2303 1.40535 24.8794 1.32065 24.4801C1.23596 24.0688 1.30855 23.6513 1.53844 23.2279C1.85301 22.7197 2.48217 22.5685 3.4259 22.7742C4.13975 22.9193 4.62976 22.998 4.89594 23.0101C5.17422 23.0222 5.41015 22.9859 5.60374 22.9012C6.48697 22.6108 6.98304 22.2962 7.09193 21.9575C7.16452 21.7034 7.00723 21.407 6.62006 21.0682C6.46277 20.923 6.28734 20.7778 6.09375 20.6326C5.90017 20.4874 5.73683 20.3422 5.60374 20.197C4.99878 19.7494 4.52087 19.2352 4.16999 18.6544C3.83122 18.0616 3.69208 17.4203 3.75257 16.7306C3.81307 16.041 3.92801 15.4723 4.0974 15.0247C4.26679 14.5649 4.47852 14.1596 4.7326 13.8087C5.18027 13.1917 5.76103 12.6895 6.47487 12.3024C7.29761 11.8789 7.95701 11.6067 8.45308 11.4857C9.43311 11.2679 10.4252 11.2498 11.4295 11.4312C11.7682 11.4917 12.0586 11.6067 12.3006 11.7761C12.5426 11.9454 12.7846 12.1209 13.0265 12.3024C13.45 12.7258 13.5529 13.1554 13.3351 13.5909C13.2504 13.7845 13.1173 13.9418 12.9358 14.0628C12.7543 14.1838 12.5607 14.2503 12.355 14.2624C12.3792 14.5891 12.3187 14.8311 12.1736 14.9884C11.8953 15.2667 11.4113 15.4481 10.7217 15.5328C9.72953 15.4602 9.05803 15.5147 8.70716 15.6962C8.29579 15.914 8.14455 16.3858 8.25344 17.1118C8.27764 17.2691 8.37443 17.4324 8.54382 17.6018C8.72531 17.7712 8.93099 17.9527 9.16088 18.1462C9.40286 18.3398 9.65089 18.5576 9.90497 18.7996C10.1712 19.0416 10.401 19.3199 10.5946 19.6344C11.2722 20.7476 11.2177 22.0482 10.4313 23.5364C9.85053 24.6495 8.8584 25.4844 7.4549 26.0409C6.72895 26.3313 5.86992 26.4765 4.87779 26.4765ZM20.1909 17.6381L20.2635 17.6562C20.2877 17.6562 20.2998 17.6623 20.2998 17.6744C20.6143 17.5534 20.8745 17.6441 21.0802 17.9466C21.2132 18.1523 21.3161 18.4669 21.3887 18.8903C21.4129 19.4711 21.3524 20.2757 21.2072 21.3041C20.9289 23.3852 20.7777 24.6253 20.7535 25.0246C20.7777 25.4481 20.5175 25.7384 19.9731 25.8957C19.5012 26.0409 19.0294 26.0349 18.5575 25.8776C18.0614 25.7082 17.8557 25.4481 17.9404 25.0972C17.8436 25.2787 17.7468 25.4057 17.6501 25.4783C17.5533 25.563 17.3597 25.6719 17.0693 25.805C16.791 25.9502 16.3917 26.0651 15.8715 26.1498C15.3512 26.2466 14.831 26.2708 14.3107 26.2224C13.7904 26.1861 13.3125 26.0591 12.877 25.8413C12.4535 25.6356 12.1692 25.3089 12.024 24.8613C11.7457 23.9901 11.782 22.883 12.1329 21.54C12.3748 20.6568 12.8104 19.8764 13.4396 19.1989C14.1655 18.4245 14.9883 17.7833 15.9078 17.2751C16.5974 16.9 17.2629 16.6762 17.9041 16.6036C18.1219 16.5794 18.3095 16.5855 18.4667 16.6218C18.6361 16.6581 18.8116 16.6944 18.9931 16.7306C19.1866 16.7669 19.3681 16.8214 19.5375 16.894C19.9731 17.0755 20.1909 17.3235 20.1909 17.6381ZM16.8334 22.4475C16.9181 22.2781 16.9846 22.0664 17.033 21.8123C17.0935 21.5582 17.1721 21.2799 17.2689 20.9774C16.2889 21.3767 15.5388 21.8667 15.0185 22.4475C14.4498 23.0887 14.4861 23.5303 15.1274 23.7723C15.6839 23.9175 16.0893 23.8268 16.3434 23.5001C16.4522 23.3549 16.549 23.1734 16.6337 22.9556C16.7184 22.7379 16.8213 22.514 16.9423 22.2841C16.906 22.3446 16.8697 22.3991 16.8334 22.4475ZM25.166 24.7161C25.0934 24.9701 25.0087 25.194 24.9119 25.3876C24.8151 25.5811 24.67 25.7626 24.4764 25.932C24.2828 26.1014 24.0529 26.2587 23.7867 26.4039C23.5205 26.5612 23.2665 26.6701 23.0245 26.7306C22.4679 26.8516 22.1775 26.6882 22.1533 26.2405C22.117 26.1196 22.0384 26.047 21.9174 26.0228C21.8085 26.0107 21.7057 25.9804 21.6089 25.932C21.3548 25.8231 21.2822 25.5267 21.3911 25.0427C21.5847 24.3773 21.7964 23.5727 22.0263 22.629C22.2562 21.6731 22.5526 20.6266 22.9156 19.4892C23.7746 16.7306 24.8393 14.2443 26.1097 12.0301C26.1944 11.9213 26.2912 11.7821 26.4001 11.6127C26.509 11.4312 26.6482 11.2679 26.8175 11.1227C27.241 10.7355 27.7613 10.6448 28.3783 10.8505C28.3662 11.0078 28.4025 11.153 28.4872 11.286C28.5719 11.407 28.6687 11.5341 28.7776 11.6672C29.0559 11.9817 29.1829 12.2661 29.1587 12.5202C27.8762 15.557 26.7207 18.9508 25.6923 22.7016C25.5713 23.1371 25.4745 23.5182 25.4019 23.8449C25.3294 24.1716 25.2507 24.462 25.166 24.7161ZM33.2775 22.7379C33.0476 22.8467 32.8238 22.9314 32.606 22.9919C32.3882 23.0524 32.1341 23.1129 31.8437 23.1734C31.0815 23.3307 30.531 23.4215 30.1922 23.4457C30.2285 23.5666 30.41 23.7118 30.7367 23.8812C30.9544 23.9175 31.1904 23.8873 31.4445 23.7905C31.7106 23.6816 31.9829 23.5848 32.2611 23.5001C32.5515 23.4033 32.8298 23.3489 33.096 23.3368C33.3743 23.3247 33.6344 23.4275 33.8764 23.6453C33.9732 23.8631 34.0518 23.9901 34.1123 24.0264C34.1728 24.0627 34.2273 24.0809 34.2756 24.0809C34.324 24.0809 34.3785 24.099 34.439 24.1353C34.4995 24.1716 34.5842 24.3107 34.6931 24.5527C34.8141 24.7947 34.7838 25.0246 34.6023 25.2424C34.4329 25.4602 34.1668 25.6477 33.8038 25.805C33.4408 25.9623 33.0173 26.0893 32.5334 26.1861C32.0494 26.2829 31.5654 26.3494 31.0815 26.3857C29.9926 26.4704 29.1638 26.3857 28.5951 26.1317C27.7724 25.8534 27.24 25.3029 26.998 24.4801C26.6835 23.3912 26.8589 22.1208 27.5243 20.6689C27.8268 19.9914 28.3047 19.2654 28.9581 18.4911C29.5267 17.8135 30.162 17.3235 30.8637 17.021C31.6743 16.6702 32.5213 16.5068 33.4045 16.531C34.3482 16.5552 35.0016 16.9666 35.3646 17.7651C35.5461 18.1886 35.5824 18.7814 35.4735 19.5437C35.2799 20.5358 35.0258 21.2376 34.7112 21.6489C34.3966 22.0482 33.9187 22.4112 33.2775 22.7379ZM32.2248 19.8704C31.5836 19.7373 31.0815 20.1003 30.7185 20.9593C30.6096 21.1892 30.5249 21.4312 30.4644 21.6852C30.8758 21.7336 31.3114 21.5037 31.7711 20.9956C31.9405 20.7899 32.0676 20.5842 32.1523 20.3785C32.2369 20.1607 32.2611 19.9914 32.2248 19.8704Z" fill="white"/>
</g>
<defs>
<clipPath id="clip0">
<rect width="37" height="28" fill="white"/>
</clipPath>
</defs>
</svg>
