<svg width="223" height="27" viewBox="0 0 223 27" fill="none" xmlns="http://www.w3.org/2000/svg">
<g clip-path="url(#clip0)">
<path d="M24.0151 0.879999C26.3191 0.415999 28.1111 0.703999 29.3911 1.744C29.9991 2.24 30.3991 2.96 30.5911 3.904C30.7991 4.848 30.6951 5.904 30.2791 7.072C30.1031 7.616 29.7991 8.024 29.3671 8.296C28.9351 8.568 28.4871 8.728 28.0231 8.776C27.5751 8.808 27.1671 8.752 26.7991 8.608C26.4311 8.448 26.2311 8.224 26.1991 7.936L25.9831 7.456C25.5991 6.88 24.9351 6.808 23.9911 7.24C23.1751 7.608 22.3591 8.248 21.5431 9.16C20.6791 10.136 20.1191 11.016 19.8631 11.8C19.5751 12.664 19.4311 13.232 19.4311 13.504C19.3991 14.112 19.6151 14.656 20.0791 15.136C20.7511 15.568 21.4231 15.768 22.0951 15.736C22.7671 15.688 23.3671 15.536 23.8951 15.28C24.4231 15.008 24.8551 14.704 25.1911 14.368C25.5271 14.032 25.6951 13.792 25.6951 13.648C25.7431 13.552 25.7911 13.456 25.8391 13.36C25.8871 13.264 25.9271 13.168 25.9591 13.072C25.8951 13.072 25.9111 13.072 26.0071 13.072C26.1031 13.056 26.1271 13.056 26.0791 13.072C26.0311 13.072 26.0551 13.08 26.1511 13.096L26.2951 13.144C25.5111 13.848 24.7511 13.992 24.0151 13.576C23.7271 13.4 23.4711 13.216 23.2471 13.024C23.0231 12.816 22.8151 12.72 22.6231 12.736C22.2711 12.544 22.1911 12.168 22.3831 11.608C22.4631 11.384 22.6071 11.176 22.8151 10.984C23.0391 10.776 23.3191 10.632 23.6551 10.552C25.2551 9.864 26.7351 9.704 28.0951 10.072C28.7031 10.232 29.1191 10.56 29.3431 11.056C29.5831 11.536 29.6871 12.08 29.6551 12.688C29.6231 13.296 29.4871 13.912 29.2471 14.536C29.0231 15.16 28.7751 15.664 28.5031 16.048C28.2311 16.416 27.8471 16.856 27.3511 17.368C26.8711 17.88 26.2631 18.376 25.5271 18.856C23.7191 20.024 21.7831 20.584 19.7191 20.536C16.7271 20.488 14.9591 19.264 14.4151 16.864C14.2391 16.096 14.1591 15.232 14.1751 14.272C14.3351 11.488 15.1671 8.888 16.6711 6.472C17.3911 5.32 18.3591 4.184 19.5751 3.064C20.3431 2.376 21.2071 1.848 22.1671 1.48C22.6791 1.272 23.2951 1.072 24.0151 0.879999ZM40.8072 8.704L40.9032 8.728C40.9352 8.728 40.9512 8.736 40.9512 8.752C41.3672 8.592 41.7112 8.712 41.9832 9.112C42.1592 9.384 42.2952 9.8 42.3912 10.36C42.4232 11.128 42.3432 12.192 42.1512 13.552C41.7832 16.304 41.5832 17.944 41.5512 18.472C41.5832 19.032 41.2392 19.416 40.5192 19.624C39.8952 19.816 39.2712 19.808 38.6472 19.6C37.9912 19.376 37.7192 19.032 37.8312 18.568C37.7032 18.808 37.5752 18.976 37.4472 19.072C37.3192 19.184 37.0632 19.328 36.6792 19.504C36.3112 19.696 35.7832 19.848 35.0952 19.96C34.4072 20.088 33.7192 20.12 33.0312 20.056C32.3432 20.008 31.7112 19.84 31.1352 19.552C30.5752 19.28 30.1992 18.848 30.0072 18.256C29.6392 17.104 29.6872 15.64 30.1512 13.864C30.4712 12.696 31.0472 11.664 31.8792 10.768C32.8392 9.744 33.9272 8.896 35.1432 8.224C36.0552 7.728 36.9352 7.432 37.7832 7.336C38.0712 7.304 38.3192 7.312 38.5272 7.36C38.7512 7.408 38.9832 7.456 39.2232 7.504C39.4792 7.552 39.7192 7.624 39.9432 7.72C40.5192 7.96 40.8072 8.288 40.8072 8.704ZM36.3672 15.064C36.4792 14.84 36.5672 14.56 36.6312 14.224C36.7112 13.888 36.8152 13.52 36.9432 13.12C35.6472 13.648 34.6552 14.296 33.9672 15.064C33.2152 15.912 33.2632 16.496 34.1112 16.816C34.8472 17.008 35.3832 16.888 35.7192 16.456C35.8632 16.264 35.9912 16.024 36.1032 15.736C36.2152 15.448 36.3512 15.152 36.5112 14.848C36.4632 14.928 36.4152 15 36.3672 15.064ZM45.1784 9.064C45.4024 8.488 45.7144 8.056 46.1144 7.768C46.5304 7.464 46.9224 7.28 47.2904 7.216C47.6744 7.136 47.9864 7.176 48.2264 7.336C48.4824 7.496 48.5704 7.744 48.4904 8.08C48.7944 7.776 49.2344 7.496 49.8104 7.24C50.3864 6.984 50.8424 6.808 51.1784 6.712C51.5144 6.616 51.8024 6.568 52.0424 6.568C52.5704 6.6 52.7224 6.888 52.4984 7.432C52.7704 7.48 52.9704 7.656 53.0984 7.96C53.2264 8.264 53.2424 8.6 53.1464 8.968C53.0504 9.336 52.8344 9.696 52.4984 10.048C52.1624 10.4 51.7064 10.64 51.1304 10.768C50.5704 10.896 50.0984 11.192 49.7144 11.656C49.3464 12.104 49.0184 12.664 48.7304 13.336C48.2504 14.472 47.8184 16.08 47.4344 18.16C47.3064 18.912 46.7864 19.544 45.8744 20.056C45.0104 20.552 44.2184 20.696 43.4984 20.488C42.6824 20.264 42.3224 19.664 42.4184 18.688C42.4504 18 42.6584 17.088 43.0424 15.952C43.4264 14.8 43.7224 13.936 43.9304 13.36C44.1384 12.768 44.2824 12.32 44.3624 12.016L45.1784 9.064ZM63.2134 8.704L63.3094 8.728C63.3414 8.728 63.3574 8.736 63.3574 8.752C63.7734 8.592 64.1174 8.712 64.3894 9.112C64.5654 9.384 64.7014 9.8 64.7974 10.36C64.8294 11.128 64.7494 12.192 64.5574 13.552C64.1894 16.304 63.9894 17.944 63.9574 18.472C63.9894 19.032 63.6454 19.416 62.9254 19.624C62.3014 19.816 61.6774 19.808 61.0534 19.6C60.3974 19.376 60.1254 19.032 60.2374 18.568C60.1094 18.808 59.9814 18.976 59.8534 19.072C59.7254 19.184 59.4694 19.328 59.0854 19.504C58.7174 19.696 58.1894 19.848 57.5014 19.96C56.8134 20.088 56.1254 20.12 55.4374 20.056C54.7494 20.008 54.1174 19.84 53.5414 19.552C52.9814 19.28 52.6054 18.848 52.4134 18.256C52.0454 17.104 52.0934 15.64 52.5574 13.864C52.8774 12.696 53.4534 11.664 54.2854 10.768C55.2454 9.744 56.3334 8.896 57.5494 8.224C58.4614 7.728 59.3414 7.432 60.1894 7.336C60.4774 7.304 60.7254 7.312 60.9334 7.36C61.1574 7.408 61.3894 7.456 61.6294 7.504C61.8854 7.552 62.1254 7.624 62.3494 7.72C62.9254 7.96 63.2134 8.288 63.2134 8.704ZM58.7734 15.064C58.8854 14.84 58.9734 14.56 59.0374 14.224C59.1174 13.888 59.2214 13.52 59.3494 13.12C58.0534 13.648 57.0614 14.296 56.3734 15.064C55.6214 15.912 55.6694 16.496 56.5174 16.816C57.2534 17.008 57.7894 16.888 58.1254 16.456C58.2694 16.264 58.3974 16.024 58.5094 15.736C58.6214 15.448 58.7574 15.152 58.9174 14.848C58.8694 14.928 58.8214 15 58.7734 15.064ZM75.1686 9.424C75.4406 8.928 75.8006 8.68 76.2486 8.68C76.9366 9.064 77.3686 9.688 77.5446 10.552C77.7206 11.416 77.5286 12.192 76.9686 12.88C76.9526 12.896 76.9606 13.032 76.9926 13.288C77.2806 14.888 77.1766 16.552 76.6806 18.28C76.5046 18.856 76.2966 19.392 76.0566 19.888C75.8326 20.384 75.5446 21.008 75.1926 21.76C74.8566 22.512 74.3766 23.256 73.7526 23.992C73.1286 24.728 72.4246 25.312 71.6406 25.744C69.9926 26.672 68.1526 26.872 66.1206 26.344C65.3846 26.056 64.8726 25.72 64.5846 25.336C64.2166 24.872 64.0886 24.376 64.2006 23.848C64.3126 23.192 64.6966 22.832 65.3526 22.768C65.6726 22.736 66.0726 22.856 66.5526 23.128C67.0966 23.24 67.5366 23.232 67.8726 23.104C68.2086 22.976 68.4726 22.856 68.6646 22.744C68.8726 22.648 69.1286 22.52 69.4326 22.36C69.9606 22.088 70.5606 21.464 71.2326 20.488C71.6006 19.976 71.9686 19.288 72.3366 18.424C71.7446 19.176 70.8006 19.544 69.5046 19.528C69.1366 19.512 68.7206 19.496 68.2566 19.48C67.8086 19.464 67.4006 19.312 67.0326 19.024C66.6646 18.736 66.3686 18.36 66.1446 17.896C65.9206 17.432 65.7686 16.904 65.6886 16.312C65.6246 15.704 65.6246 15.088 65.6886 14.464C65.9446 12.288 66.8566 10.568 68.4246 9.304C69.4966 8.424 70.6486 7.952 71.8806 7.888C72.4726 7.856 73.0326 7.92 73.5606 8.08C74.2006 8.32 74.7366 8.768 75.1686 9.424ZM72.2406 14.872C72.2406 14.824 72.2486 14.784 72.2646 14.752C72.1846 14.72 72.1046 14.696 72.0246 14.68C71.9446 14.648 71.8006 14.6 71.5926 14.536C71.3846 14.472 71.1046 14.512 70.7526 14.656C70.4006 14.784 70.0886 14.968 69.8166 15.208C69.5606 15.432 69.3526 15.672 69.1926 15.928C69.0486 16.184 69.0246 16.4 69.1206 16.576C69.2326 16.752 69.4246 16.824 69.6966 16.792C69.9686 16.744 70.2646 16.624 70.5846 16.432C71.2886 16 71.8406 15.48 72.2406 14.872ZM86.4724 15.448C86.1684 15.592 85.8724 15.704 85.5844 15.784C85.2964 15.864 84.9604 15.944 84.5764 16.024C83.5684 16.232 82.8404 16.352 82.3924 16.384C82.4404 16.544 82.6804 16.736 83.1124 16.96C83.4004 17.008 83.7124 16.968 84.0484 16.84C84.4004 16.696 84.7604 16.568 85.1284 16.456C85.5124 16.328 85.8804 16.256 86.2324 16.24C86.6004 16.224 86.9444 16.36 87.2644 16.648C87.3924 16.936 87.4964 17.104 87.5764 17.152C87.6564 17.2 87.7284 17.224 87.7924 17.224C87.8564 17.224 87.9284 17.248 88.0084 17.296C88.0884 17.344 88.2004 17.528 88.3444 17.848C88.5044 18.168 88.4644 18.472 88.2244 18.76C88.0004 19.048 87.6484 19.296 87.1684 19.504C86.6884 19.712 86.1284 19.88 85.4884 20.008C84.8484 20.136 84.2084 20.224 83.5684 20.272C82.1284 20.384 81.0324 20.272 80.2804 19.936C79.1924 19.568 78.4884 18.84 78.1684 17.752C77.7524 16.312 77.9844 14.632 78.8644 12.712C79.2644 11.816 79.8964 10.856 80.7604 9.832C81.5124 8.936 82.3524 8.288 83.2804 7.888C84.3524 7.424 85.4724 7.208 86.6404 7.24C87.8884 7.272 88.7524 7.816 89.2324 8.872C89.4724 9.432 89.5204 10.216 89.3764 11.224C89.1204 12.536 88.7844 13.464 88.3684 14.008C87.9524 14.536 87.3204 15.016 86.4724 15.448ZM85.0804 11.656C84.2324 11.48 83.5684 11.96 83.0884 13.096C82.9444 13.4 82.8324 13.72 82.7524 14.056C83.2964 14.12 83.8724 13.816 84.4804 13.144C84.7044 12.872 84.8724 12.6 84.9844 12.328C85.0964 12.04 85.1284 11.816 85.0804 11.656ZM101.135 20.392C100.319 20.424 99.5671 20.32 98.8791 20.08C98.2071 19.856 97.6551 19.544 97.2231 19.144C96.8071 18.744 96.5431 18.28 96.4311 17.752C96.3191 17.208 96.4151 16.656 96.7191 16.096C97.1351 15.424 97.9671 15.224 99.2151 15.496C100.159 15.688 100.807 15.792 101.159 15.808C101.527 15.824 101.839 15.776 102.095 15.664C103.263 15.28 103.919 14.864 104.063 14.416C104.159 14.08 103.951 13.688 103.439 13.24C103.231 13.048 102.999 12.856 102.743 12.664C102.487 12.472 102.271 12.28 102.095 12.088C101.295 11.496 100.663 10.816 100.199 10.048C99.7511 9.264 99.5671 8.416 99.6471 7.504C99.7271 6.592 99.8791 5.84 100.103 5.248C100.327 4.64 100.607 4.104 100.943 3.64C101.535 2.824 102.303 2.16 103.247 1.648C104.335 1.088 105.207 0.728 105.863 0.568C107.159 0.28 108.471 0.256 109.799 0.495999C110.247 0.575999 110.631 0.727999 110.951 0.951999C111.271 1.176 111.591 1.408 111.911 1.648C112.471 2.208 112.607 2.776 112.319 3.352C112.207 3.608 112.031 3.816 111.791 3.976C111.551 4.136 111.295 4.224 111.023 4.24C111.055 4.672 110.975 4.992 110.783 5.2C110.415 5.568 109.775 5.808 108.863 5.92C107.551 5.824 106.663 5.896 106.199 6.136C105.655 6.424 105.455 7.048 105.599 8.008C105.631 8.216 105.759 8.432 105.983 8.656C106.223 8.88 106.495 9.12 106.799 9.376C107.119 9.632 107.447 9.92 107.783 10.24C108.135 10.56 108.439 10.928 108.695 11.344C109.591 12.816 109.519 14.536 108.479 16.504C107.711 17.976 106.399 19.08 104.543 19.816C103.583 20.2 102.447 20.392 101.135 20.392ZM121.385 8.704L121.481 8.728C121.513 8.728 121.529 8.736 121.529 8.752C121.945 8.592 122.289 8.712 122.561 9.112C122.737 9.384 122.873 9.8 122.969 10.36C123.001 11.128 122.921 12.192 122.729 13.552C122.361 16.304 122.161 17.944 122.129 18.472C122.161 19.032 121.817 19.416 121.097 19.624C120.473 19.816 119.849 19.808 119.225 19.6C118.569 19.376 118.297 19.032 118.409 18.568C118.281 18.808 118.153 18.976 118.025 19.072C117.897 19.184 117.641 19.328 117.257 19.504C116.889 19.696 116.361 19.848 115.673 19.96C114.985 20.088 114.297 20.12 113.609 20.056C112.921 20.008 112.289 19.84 111.713 19.552C111.153 19.28 110.777 18.848 110.585 18.256C110.217 17.104 110.265 15.64 110.729 13.864C111.049 12.696 111.625 11.664 112.457 10.768C113.417 9.744 114.505 8.896 115.721 8.224C116.633 7.728 117.513 7.432 118.361 7.336C118.649 7.304 118.897 7.312 119.105 7.36C119.329 7.408 119.561 7.456 119.801 7.504C120.057 7.552 120.297 7.624 120.521 7.72C121.097 7.96 121.385 8.288 121.385 8.704ZM116.945 15.064C117.057 14.84 117.145 14.56 117.209 14.224C117.289 13.888 117.393 13.52 117.521 13.12C116.225 13.648 115.233 14.296 114.545 15.064C113.793 15.912 113.841 16.496 114.689 16.816C115.425 17.008 115.961 16.888 116.297 16.456C116.441 16.264 116.569 16.024 116.681 15.736C116.793 15.448 116.929 15.152 117.089 14.848C117.041 14.928 116.993 15 116.945 15.064ZM127.964 18.064C127.868 18.4 127.756 18.696 127.628 18.952C127.5 19.208 127.308 19.448 127.052 19.672C126.796 19.896 126.492 20.104 126.14 20.296C125.788 20.504 125.452 20.648 125.132 20.728C124.396 20.888 124.012 20.672 123.98 20.08C123.932 19.92 123.828 19.824 123.668 19.792C123.524 19.776 123.388 19.736 123.26 19.672C122.924 19.528 122.828 19.136 122.972 18.496C123.228 17.616 123.508 16.552 123.812 15.304C124.116 14.04 124.508 12.656 124.988 11.152C126.124 7.504 127.532 4.216 129.212 1.288C129.324 1.144 129.452 0.959999 129.596 0.735999C129.74 0.495999 129.924 0.279999 130.148 0.0879989C130.708 -0.424001 131.396 -0.544001 132.212 -0.272001C132.196 -0.0640006 132.244 0.127999 132.356 0.303999C132.468 0.463999 132.596 0.631999 132.74 0.808C133.108 1.224 133.276 1.6 133.244 1.936C131.548 5.952 130.02 10.44 128.66 15.4C128.5 15.976 128.372 16.48 128.276 16.912C128.18 17.344 128.076 17.728 127.964 18.064ZM138.691 15.448C138.387 15.592 138.091 15.704 137.803 15.784C137.515 15.864 137.179 15.944 136.795 16.024C135.787 16.232 135.059 16.352 134.611 16.384C134.659 16.544 134.899 16.736 135.331 16.96C135.619 17.008 135.931 16.968 136.267 16.84C136.619 16.696 136.979 16.568 137.347 16.456C137.731 16.328 138.099 16.256 138.451 16.24C138.819 16.224 139.163 16.36 139.483 16.648C139.611 16.936 139.715 17.104 139.795 17.152C139.875 17.2 139.947 17.224 140.011 17.224C140.075 17.224 140.147 17.248 140.227 17.296C140.307 17.344 140.419 17.528 140.563 17.848C140.723 18.168 140.683 18.472 140.443 18.76C140.219 19.048 139.867 19.296 139.387 19.504C138.907 19.712 138.347 19.88 137.707 20.008C137.067 20.136 136.427 20.224 135.787 20.272C134.347 20.384 133.251 20.272 132.499 19.936C131.411 19.568 130.707 18.84 130.387 17.752C129.971 16.312 130.203 14.632 131.083 12.712C131.483 11.816 132.115 10.856 132.979 9.832C133.731 8.936 134.571 8.288 135.499 7.888C136.571 7.424 137.691 7.208 138.859 7.24C140.107 7.272 140.971 7.816 141.451 8.872C141.691 9.432 141.739 10.216 141.595 11.224C141.339 12.536 141.003 13.464 140.587 14.008C140.171 14.536 139.539 15.016 138.691 15.448ZM137.299 11.656C136.451 11.48 135.787 11.96 135.307 13.096C135.163 13.4 135.051 13.72 134.971 14.056C135.515 14.12 136.091 13.816 136.699 13.144C136.923 12.872 137.091 12.6 137.203 12.328C137.315 12.04 137.347 11.816 137.299 11.656Z" fill="white"/>
<path d="M154.094 14.1448C154.398 14.0408 154.862 13.9688 155.486 13.9288C155.63 14.0088 155.686 14.1728 155.654 14.4208C155.63 14.6688 155.538 14.8568 155.378 14.9848C155.186 15.2728 154.982 15.4688 154.766 15.5728C154.646 15.6288 154.498 15.6808 154.322 15.7288C154.154 15.7688 153.946 15.8248 153.698 15.8968C153.538 16.3448 153.358 16.9528 153.158 17.7208C152.966 18.4888 152.83 19.0008 152.75 19.2568C152.566 19.8488 152.434 20.1568 152.354 20.1808C152.17 20.4688 151.966 20.6488 151.742 20.7208C151.526 20.7928 151.326 20.7928 151.142 20.7208C150.958 20.6568 150.814 20.5368 150.71 20.3608C150.614 20.1928 150.594 20.0128 150.65 19.8208C150.626 19.6208 150.662 19.0608 150.758 18.1408C150.854 17.2208 150.902 16.6928 150.902 16.5568C150.87 16.5248 150.83 16.5048 150.782 16.4968C150.734 16.4888 150.702 16.4688 150.686 16.4368C150.614 16.4128 150.558 16.3688 150.518 16.3048C150.446 16.1928 150.37 16.1128 150.29 16.0648C150.146 16.0808 150.03 16.0408 149.942 15.9448C149.846 15.8408 149.798 15.7208 149.798 15.5848C149.798 15.4488 149.846 15.3088 149.942 15.1648C150.038 15.0208 150.202 14.9088 150.434 14.8288L151.658 14.4448C151.754 13.7968 152.058 13.0608 152.57 12.2368C152.69 12.0368 152.818 11.8248 152.954 11.6008C153.098 11.3688 153.294 11.1568 153.542 10.9648C153.79 10.7648 154.046 10.6128 154.31 10.5088C154.582 10.3968 154.854 10.3288 155.126 10.3048C155.406 10.2808 155.662 10.2848 155.894 10.3168C156.382 10.3808 156.706 10.5448 156.866 10.8088C157.058 11.1448 157.142 11.4488 157.118 11.7208C157.102 11.9848 156.994 12.1848 156.794 12.3208C156.474 12.5288 156.202 12.5608 155.978 12.4168C155.89 12.3688 155.826 12.2888 155.786 12.1768C155.746 12.0648 155.67 12.0248 155.558 12.0568C155.446 12.0888 155.318 12.1648 155.174 12.2848C155.03 12.3968 154.882 12.5408 154.73 12.7168C154.586 12.8928 154.458 13.0728 154.346 13.2568C154.066 13.6808 153.982 13.9768 154.094 14.1448ZM156.741 14.3728C156.965 14.1568 157.213 14.0328 157.485 14.0008C157.765 13.9608 158.009 13.9888 158.217 14.0848C158.433 14.1808 158.589 14.3368 158.685 14.5528C158.789 14.7608 158.777 15.0008 158.649 15.2728C158.377 15.6728 158.161 16.1048 158.001 16.5688C157.841 17.0328 157.693 17.5008 157.557 17.9728C158.293 17.5088 158.909 16.8168 159.405 15.8968C159.549 15.6248 159.705 15.3488 159.873 15.0688L160.053 14.7328L160.413 14.1568C160.461 14.0048 160.545 13.9088 160.665 13.8688C160.785 13.8208 160.913 13.7968 161.049 13.7968C161.193 13.7968 161.337 13.8008 161.481 13.8088C161.625 13.8088 161.757 13.7688 161.877 13.6888C161.997 13.6088 162.137 13.5808 162.297 13.6048C162.465 13.6208 162.613 13.6728 162.741 13.7608C162.877 13.8488 162.977 13.9568 163.041 14.0848C163.113 14.2048 163.121 14.3248 163.065 14.4448C162.729 15.1648 162.269 16.5048 161.685 18.4648C161.549 18.9048 161.421 19.2728 161.301 19.5688C161.101 19.8168 160.849 19.9848 160.545 20.0728C160.241 20.1608 159.953 20.1848 159.681 20.1448C159.417 20.1128 159.205 20.0208 159.045 19.8688C158.885 19.7248 158.849 19.5408 158.937 19.3168C158.713 19.5008 158.481 19.6688 158.241 19.8208C158.001 19.9728 157.709 20.0728 157.365 20.1208C157.029 20.1688 156.705 20.1528 156.393 20.0728C156.081 20.0008 155.813 19.8568 155.589 19.6408C155.373 19.4248 155.257 19.1368 155.241 18.7768C155.193 17.5128 155.693 16.0448 156.741 14.3728ZM164.822 10.2208C164.998 10.0048 165.21 9.88481 165.458 9.86081C165.706 9.83681 165.946 9.87681 166.178 9.98081C166.41 10.0768 166.606 10.2288 166.766 10.4368C166.934 10.6368 167.026 10.8608 167.042 11.1088L166.934 11.4568C167.022 11.5608 167.098 11.6448 167.162 11.7088C167.234 11.7728 167.274 11.8728 167.282 12.0088C167.33 12.1208 167.13 12.5648 166.682 13.3408C166.498 13.6608 166.302 13.9968 166.094 14.3488C165.894 14.6928 165.73 15.0008 165.602 15.2728C165.698 15.2488 165.794 15.2288 165.89 15.2128C165.986 15.1968 166.082 15.1768 166.178 15.1528C166.77 15.0008 167.17 14.9248 167.378 14.9248C167.586 14.9168 167.758 14.9368 167.894 14.9848C168.262 15.1288 168.454 15.3528 168.47 15.6568C168.358 15.9208 167.938 16.2888 167.21 16.7608C167.042 16.8648 166.906 16.9528 166.802 17.0248L165.758 17.7688C165.702 17.8568 165.662 17.9408 165.638 18.0208V18.0328C165.654 18.0728 165.754 18.1288 165.938 18.2008C166.13 18.2728 166.294 18.3368 166.43 18.3928C166.75 18.5368 167.034 18.7328 167.282 18.9808C167.362 19.0688 167.414 19.2008 167.438 19.3768C167.462 19.5448 167.434 19.7008 167.354 19.8448C167.282 19.9888 167.15 20.0928 166.958 20.1568C166.766 20.2208 166.498 20.1928 166.154 20.0728C165.65 19.8488 165.054 19.3488 164.366 18.5728C164.286 18.8528 164.206 19.1288 164.126 19.4008C164.054 19.6648 163.974 19.9368 163.886 20.2168C163.766 20.4888 163.486 20.6168 163.046 20.6008C162.87 20.6008 162.71 20.5648 162.566 20.4928C162.43 20.4208 162.35 20.3248 162.326 20.2048C162.262 20.0288 162.23 19.8968 162.23 19.8088C162.23 19.7288 162.25 19.6328 162.29 19.5208C162.474 19.0568 162.59 18.6888 162.638 18.4168C162.686 18.1368 162.718 17.9728 162.734 17.9248C162.51 17.7808 162.378 17.5528 162.338 17.2408C162.29 16.9368 162.362 16.6648 162.554 16.4248C162.81 16.3288 162.994 16.2568 163.106 16.2088C163.154 15.9048 163.234 15.5768 163.346 15.2248C163.546 14.5928 163.698 14.0448 163.802 13.5808C163.914 13.1168 164.07 12.5928 164.27 12.0088C164.478 11.4168 164.662 10.8208 164.822 10.2208ZM169.725 14.3728C169.949 14.1568 170.197 14.0328 170.469 14.0008C170.749 13.9608 170.993 13.9888 171.201 14.0848C171.417 14.1808 171.573 14.3368 171.669 14.5528C171.773 14.7608 171.761 15.0008 171.633 15.2728C171.361 15.6728 171.145 16.1048 170.985 16.5688C170.825 17.0328 170.677 17.5008 170.541 17.9728C171.277 17.5088 171.893 16.8168 172.389 15.8968C172.533 15.6248 172.689 15.3488 172.857 15.0688L173.037 14.7328L173.397 14.1568C173.445 14.0048 173.529 13.9088 173.649 13.8688C173.769 13.8208 173.897 13.7968 174.033 13.7968C174.177 13.7968 174.321 13.8008 174.465 13.8088C174.609 13.8088 174.741 13.7688 174.861 13.6888C174.981 13.6088 175.121 13.5808 175.281 13.6048C175.449 13.6208 175.597 13.6728 175.725 13.7608C175.861 13.8488 175.961 13.9568 176.025 14.0848C176.097 14.2048 176.105 14.3248 176.049 14.4448C175.713 15.1648 175.253 16.5048 174.669 18.4648C174.533 18.9048 174.405 19.2728 174.285 19.5688C174.085 19.8168 173.833 19.9848 173.529 20.0728C173.225 20.1608 172.937 20.1848 172.665 20.1448C172.401 20.1128 172.189 20.0208 172.029 19.8688C171.869 19.7248 171.833 19.5408 171.921 19.3168C171.697 19.5008 171.465 19.6688 171.225 19.8208C170.985 19.9728 170.693 20.0728 170.349 20.1208C170.013 20.1688 169.689 20.1528 169.377 20.0728C169.065 20.0008 168.797 19.8568 168.573 19.6408C168.357 19.4248 168.241 19.1368 168.225 18.7768C168.177 17.5128 168.677 16.0448 169.725 14.3728ZM177.123 14.5168C177.291 14.3968 177.499 14.3688 177.747 14.4328C177.795 14.4408 177.843 14.4448 177.891 14.4448C178.067 14.0848 178.371 13.8968 178.803 13.8808C178.915 13.8728 179.071 13.8528 179.271 13.8208C179.471 13.7888 179.711 13.7968 179.991 13.8448C180.279 13.8928 180.531 13.9768 180.747 14.0968C181.219 14.3528 181.503 14.7208 181.599 15.2008C181.791 15.9048 181.763 16.6728 181.515 17.5048C181.251 18.4248 180.803 19.1608 180.171 19.7128C179.883 19.9688 179.579 20.1288 179.259 20.1928C178.939 20.2648 178.651 20.3048 178.395 20.3128C178.139 20.3208 177.903 20.3208 177.687 20.3128C177.479 20.3128 177.275 20.2928 177.075 20.2528C176.643 20.1648 176.287 19.9608 176.007 19.6408C175.679 19.2808 175.539 18.7208 175.587 17.9608C175.619 17.2888 175.787 16.6128 176.091 15.9328C176.403 15.2448 176.747 14.7728 177.123 14.5168ZM179.235 16.9288C179.035 16.9928 178.847 17.0208 178.671 17.0128C178.583 17.1008 178.503 17.1968 178.431 17.3008C178.367 17.3968 178.279 17.4888 178.167 17.5768C178.055 17.6568 177.999 17.6888 177.999 17.6728C177.863 17.8648 177.751 18.0648 177.663 18.2728C177.575 18.4728 177.575 18.6768 177.663 18.8848C177.983 18.9168 178.219 18.9088 178.371 18.8608C178.523 18.8128 178.663 18.7208 178.791 18.5848C178.927 18.4488 179.031 18.2888 179.103 18.1048C179.247 17.7608 179.291 17.3688 179.235 16.9288ZM184.1 10.2208C184.276 10.0048 184.488 9.88481 184.736 9.86081C184.984 9.83681 185.224 9.87681 185.456 9.98081C185.688 10.0768 185.884 10.2288 186.044 10.4368C186.212 10.6368 186.304 10.8608 186.32 11.1088L186.212 11.4568C186.3 11.5608 186.376 11.6448 186.44 11.7088C186.512 11.7728 186.552 11.8728 186.56 12.0088C186.608 12.1208 186.408 12.5648 185.96 13.3408C185.776 13.6608 185.58 13.9968 185.372 14.3488C185.172 14.6928 185.008 15.0008 184.88 15.2728C184.976 15.2488 185.072 15.2288 185.168 15.2128C185.264 15.1968 185.36 15.1768 185.456 15.1528C186.048 15.0008 186.448 14.9248 186.656 14.9248C186.864 14.9168 187.036 14.9368 187.172 14.9848C187.54 15.1288 187.732 15.3528 187.748 15.6568C187.636 15.9208 187.216 16.2888 186.488 16.7608C186.32 16.8648 186.184 16.9528 186.08 17.0248L185.036 17.7688C184.98 17.8568 184.94 17.9408 184.916 18.0208V18.0328C184.932 18.0728 185.032 18.1288 185.216 18.2008C185.408 18.2728 185.572 18.3368 185.708 18.3928C186.028 18.5368 186.312 18.7328 186.56 18.9808C186.64 19.0688 186.692 19.2008 186.716 19.3768C186.74 19.5448 186.712 19.7008 186.632 19.8448C186.56 19.9888 186.428 20.0928 186.236 20.1568C186.044 20.2208 185.776 20.1928 185.432 20.0728C184.928 19.8488 184.332 19.3488 183.644 18.5728C183.564 18.8528 183.484 19.1288 183.404 19.4008C183.332 19.6648 183.252 19.9368 183.164 20.2168C183.044 20.4888 182.764 20.6168 182.324 20.6008C182.148 20.6008 181.988 20.5648 181.844 20.4928C181.708 20.4208 181.628 20.3248 181.604 20.2048C181.54 20.0288 181.508 19.8968 181.508 19.8088C181.508 19.7288 181.528 19.6328 181.568 19.5208C181.752 19.0568 181.868 18.6888 181.916 18.4168C181.964 18.1368 181.996 17.9728 182.012 17.9248C181.788 17.7808 181.656 17.5528 181.616 17.2408C181.568 16.9368 181.64 16.6648 181.832 16.4248C182.088 16.3288 182.272 16.2568 182.384 16.2088C182.432 15.9048 182.512 15.5768 182.624 15.2248C182.824 14.5928 182.976 14.0448 183.08 13.5808C183.192 13.1168 183.348 12.5928 183.548 12.0088C183.756 11.4168 183.94 10.8208 184.1 10.2208ZM192.939 14.4928L192.987 14.5048C193.003 14.5048 193.011 14.5088 193.011 14.5168C193.219 14.4368 193.391 14.4968 193.527 14.6968C193.615 14.8328 193.683 15.0408 193.731 15.3208C193.747 15.7048 193.707 16.2368 193.611 16.9168C193.427 18.2928 193.327 19.1128 193.311 19.3768C193.327 19.6568 193.155 19.8488 192.795 19.9528C192.483 20.0488 192.171 20.0448 191.859 19.9408C191.531 19.8288 191.395 19.6568 191.451 19.4248C191.387 19.5448 191.323 19.6288 191.259 19.6768C191.195 19.7328 191.067 19.8048 190.875 19.8928C190.691 19.9888 190.427 20.0648 190.083 20.1208C189.739 20.1848 189.395 20.2008 189.051 20.1688C188.707 20.1448 188.391 20.0608 188.103 19.9168C187.823 19.7808 187.635 19.5648 187.539 19.2688C187.355 18.6928 187.379 17.9608 187.611 17.0728C187.771 16.4888 188.059 15.9728 188.475 15.5248C188.955 15.0128 189.499 14.5888 190.107 14.2528C190.563 14.0048 191.003 13.8568 191.427 13.8088C191.571 13.7928 191.695 13.7968 191.799 13.8208C191.911 13.8448 192.027 13.8688 192.147 13.8928C192.275 13.9168 192.395 13.9528 192.507 14.0008C192.795 14.1208 192.939 14.2848 192.939 14.4928ZM190.719 17.6728C190.775 17.5608 190.819 17.4208 190.851 17.2528C190.891 17.0848 190.943 16.9008 191.007 16.7008C190.359 16.9648 189.863 17.2888 189.519 17.6728C189.143 18.0968 189.167 18.3888 189.591 18.5488C189.959 18.6448 190.227 18.5848 190.395 18.3688C190.467 18.2728 190.531 18.1528 190.587 18.0088C190.643 17.8648 190.711 17.7168 190.791 17.5648C190.767 17.6048 190.743 17.6408 190.719 17.6728ZM201.467 13.1368C201.379 13.4808 201.043 13.7368 200.459 13.9048C199.931 14.0488 199.459 14.0328 199.043 13.8568C198.851 13.7688 198.711 13.6408 198.623 13.4728C198.543 13.3048 198.555 13.0888 198.659 12.8248C199.035 12.1048 199.467 11.4968 199.955 11.0008C200.123 10.8248 200.291 10.6848 200.459 10.5808C200.683 10.4048 200.967 10.2608 201.311 10.1488C201.663 10.0288 202.027 9.96481 202.403 9.95681C203.275 9.94081 203.959 10.1808 204.455 10.6768C204.911 11.0688 205.111 11.5768 205.055 12.2008C204.983 12.9928 204.399 14.0648 203.303 15.4168C202.847 15.9768 202.323 16.5208 201.731 17.0488C201.147 17.5688 200.591 18.0808 200.063 18.5848C199.839 18.4568 199.751 18.3488 199.799 18.2608C199.847 18.1648 199.975 18.0888 200.183 18.0328C200.391 17.9768 200.651 17.9408 200.963 17.9248C201.275 17.9008 201.583 17.8968 201.887 17.9128C202.615 17.9528 203.039 18.0568 203.159 18.2248C203.263 18.2888 203.327 18.4088 203.351 18.5848C203.383 18.7608 203.375 18.9528 203.327 19.1608C203.215 19.6328 203.007 19.9888 202.703 20.2288C202.495 20.4368 201.939 20.5968 201.035 20.7088C200.131 20.8208 199.331 20.8328 198.635 20.7448C198.299 20.6968 198.031 20.6208 197.831 20.5168C197.631 20.4128 197.559 20.2848 197.615 20.1328C197.671 19.9888 197.671 19.8768 197.615 19.7968C197.559 19.7168 197.499 19.6328 197.435 19.5448C197.283 19.3128 197.291 19.0408 197.459 18.7288C197.707 18.3128 197.927 18.0008 198.119 17.7928C198.311 17.5848 198.507 17.3608 198.707 17.1208C198.915 16.8808 199.151 16.6208 199.415 16.3408C199.687 16.0608 199.955 15.7848 200.219 15.5128C200.811 14.8888 201.315 14.2928 201.731 13.7248C201.923 13.4448 202.071 13.1848 202.175 12.9448C202.279 12.7048 202.323 12.4368 202.307 12.1408C202.211 12.2448 202.123 12.3328 202.043 12.4048C201.963 12.4688 201.891 12.5368 201.827 12.6088C201.659 12.7688 201.539 12.9448 201.467 13.1368ZM206.098 11.5888C206.218 11.3568 206.41 11.1288 206.674 10.9048C206.938 10.6808 207.234 10.4928 207.562 10.3408C208.322 9.98881 209.002 9.94881 209.602 10.2208C209.922 10.3648 210.094 10.4608 210.118 10.5088C210.15 10.5568 210.162 10.6088 210.154 10.6648C210.146 10.7208 210.146 10.8048 210.154 10.9168C210.866 10.6368 211.378 10.8408 211.69 11.5288C211.962 12.1448 212.034 12.9848 211.906 14.0488C211.77 15.1128 211.502 16.0208 211.102 16.7728C210.806 17.6128 210.338 18.4008 209.698 19.1368C209.45 19.4328 209.218 19.6568 209.002 19.8088C208.794 19.9688 208.646 20.0408 208.558 20.0248C208.398 20.0568 208.254 20.0888 208.126 20.1208C207.95 20.1688 207.798 20.1928 207.67 20.1928C207.654 20.2088 207.638 20.2208 207.622 20.2288C207.614 20.2368 207.606 20.2488 207.598 20.2648L207.238 20.3728C207.222 20.5008 207.118 20.5888 206.926 20.6368C206.734 20.6928 206.514 20.7048 206.266 20.6728C206.026 20.6408 205.782 20.5688 205.534 20.4568C205.286 20.3528 205.102 20.2008 204.982 20.0008C204.79 19.5688 204.666 19.2248 204.61 18.9688C204.45 18.1208 204.466 17.0328 204.658 15.7048C204.802 14.7288 205.058 13.8248 205.426 12.9928C205.61 12.5608 205.834 12.0928 206.098 11.5888ZM208.342 12.9448C207.75 14.1288 207.354 15.4008 207.154 16.7608C207.09 17.2328 207.078 17.6728 207.118 18.0808H207.142L207.154 18.0688C208.002 16.7888 208.642 15.4008 209.074 13.9048C209.218 13.3848 209.282 12.9728 209.266 12.6688C209.258 12.3648 209.206 12.1688 209.11 12.0808C209.078 12.1128 209.058 12.1288 209.05 12.1288C209.05 12.1288 209.046 12.1208 209.038 12.1048C209.006 12.0648 208.962 12.0488 208.906 12.0568C208.794 12.2088 208.69 12.3648 208.594 12.5248L208.342 12.9448ZM215.201 13.1368C215.113 13.4808 214.777 13.7368 214.193 13.9048C213.665 14.0488 213.193 14.0328 212.777 13.8568C212.585 13.7688 212.445 13.6408 212.357 13.4728C212.277 13.3048 212.289 13.0888 212.393 12.8248C212.769 12.1048 213.201 11.4968 213.689 11.0008C213.857 10.8248 214.025 10.6848 214.193 10.5808C214.417 10.4048 214.701 10.2608 215.045 10.1488C215.397 10.0288 215.761 9.96481 216.137 9.95681C217.009 9.94081 217.693 10.1808 218.189 10.6768C218.645 11.0688 218.845 11.5768 218.789 12.2008C218.717 12.9928 218.133 14.0648 217.037 15.4168C216.581 15.9768 216.057 16.5208 215.465 17.0488C214.881 17.5688 214.325 18.0808 213.797 18.5848C213.573 18.4568 213.485 18.3488 213.533 18.2608C213.581 18.1648 213.709 18.0888 213.917 18.0328C214.125 17.9768 214.385 17.9408 214.697 17.9248C215.009 17.9008 215.317 17.8968 215.621 17.9128C216.349 17.9528 216.773 18.0568 216.893 18.2248C216.997 18.2888 217.061 18.4088 217.085 18.5848C217.117 18.7608 217.109 18.9528 217.061 19.1608C216.949 19.6328 216.741 19.9888 216.437 20.2288C216.229 20.4368 215.673 20.5968 214.769 20.7088C213.865 20.8208 213.065 20.8328 212.369 20.7448C212.033 20.6968 211.765 20.6208 211.565 20.5168C211.365 20.4128 211.293 20.2848 211.349 20.1328C211.405 19.9888 211.405 19.8768 211.349 19.7968C211.293 19.7168 211.233 19.6328 211.169 19.5448C211.017 19.3128 211.025 19.0408 211.193 18.7288C211.441 18.3128 211.661 18.0008 211.853 17.7928C212.045 17.5848 212.241 17.3608 212.441 17.1208C212.649 16.8808 212.885 16.6208 213.149 16.3408C213.421 16.0608 213.689 15.7848 213.953 15.5128C214.545 14.8888 215.049 14.2928 215.465 13.7248C215.657 13.4448 215.805 13.1848 215.909 12.9448C216.013 12.7048 216.057 12.4368 216.041 12.1408C215.945 12.2448 215.857 12.3328 215.777 12.4048C215.697 12.4688 215.625 12.5368 215.561 12.6088C215.393 12.7688 215.273 12.9448 215.201 13.1368ZM218.368 13.1488C218.328 12.9888 218.348 12.8368 218.428 12.6928C218.508 12.5488 218.648 12.4048 218.848 12.2608C219.056 12.1088 219.244 12.0208 219.412 11.9968L219.424 11.9848C219.464 11.9688 219.5 11.9488 219.532 11.9248C219.572 11.9008 219.612 11.8768 219.652 11.8528C219.988 11.5648 220.292 11.2448 220.564 10.8928C220.572 10.8848 220.576 10.8768 220.576 10.8688C220.576 10.8608 220.584 10.8488 220.6 10.8328C220.712 10.5768 220.912 10.3888 221.2 10.2688C221.488 10.1408 221.764 10.0848 222.028 10.1008C222.292 10.1088 222.528 10.1848 222.736 10.3288C222.952 10.4728 223.084 10.6848 223.132 10.9648C223.1 11.1888 222.992 11.4608 222.808 11.7808C222.856 11.8848 222.92 12.0088 223 12.1528C223.08 12.2888 223.096 12.4288 223.048 12.5728C222.84 12.9968 222.628 13.4208 222.412 13.8448C222.204 14.2688 222.032 14.6408 221.896 14.9608C221.76 15.2808 221.636 15.5728 221.524 15.8368C221.42 16.0928 221.312 16.3528 221.2 16.6168C220.816 17.5768 220.536 18.3608 220.36 18.9688C220.192 19.5688 220.016 20.0568 219.832 20.4328V20.4688H219.82C219.748 20.6528 219.608 20.7848 219.4 20.8648C219.2 20.9528 218.992 20.9848 218.776 20.9608C218.56 20.9448 218.372 20.8768 218.212 20.7568C218.052 20.6368 217.98 20.4648 217.996 20.2408C218.02 20.0248 218.052 19.8168 218.092 19.6168C218.14 19.4088 218.212 19.0328 218.308 18.4888C218.5 17.3928 218.868 15.8488 219.412 13.8568C219.18 13.8248 218.956 13.7368 218.74 13.5928C218.532 13.4488 218.408 13.3008 218.368 13.1488Z" fill="#CCFFE3"/>
<g clip-path="url(#clip1)">
<path d="M7.03201 11.2322C6.67302 11.5893 6.09343 11.5893 5.73628 11.2322L0.688683 6.49808C0.406466 6.23337 0.0700882 5.73177 0.0458405 5.34565C-0.0190489 4.30107 0.0266998 2.30087 0.0584579 1.24041C0.0698736 0.853904 0.394836 0.529886 0.781597 0.521003C2.13638 0.489502 5.00679 0.455856 5.2736 0.722924L10.8321 5.75181C11.189 6.10896 10.8652 7.0123 10.5056 7.3713L7.03201 11.2322ZM2.60884 2.05719C2.30611 1.75515 1.81661 1.75515 1.51362 2.05719C1.21158 2.36018 1.21158 2.84943 1.51362 3.15147C1.81682 3.45377 2.30633 3.45377 2.60884 3.15147C2.91115 2.84943 2.91115 2.35992 2.60884 2.05719Z" fill="white"/>
</g>
</g>
<defs>
<clipPath id="clip0">
<rect width="223" height="27" fill="white"/>
</clipPath>
<clipPath id="clip1">
<rect width="11" height="11" fill="white" transform="translate(0 0.5)"/>
</clipPath>
</defs>
</svg>
